<svg width="570" height="427" viewBox="0 0 570 427" fill="none" xmlns="http://www.w3.org/2000/svg">
<mask id="mask0_1_329" style="mask-type:luminance" maskUnits="userSpaceOnUse" x="13" y="103" width="521" height="283">
<path d="M533.422 103.113H13.969V385.981H533.422V103.113Z" fill="white"/>
</mask>
<g mask="url(#mask0_1_329)">
<path d="M533.421 309.939C533.45 312.252 533.02 314.548 532.155 316.694C531.29 318.839 530.007 320.792 528.382 322.438C526.756 324.084 524.82 325.39 522.685 326.282C520.55 327.174 518.259 327.632 515.946 327.632H391.133C392.947 330.947 393.637 334.76 393.102 338.501C392.566 342.242 390.833 345.708 388.162 348.382C387.142 349.397 386.004 350.286 384.773 351.03H407.83C417.474 351.03 425.637 358.643 425.761 368.277C425.789 370.59 425.358 372.886 424.493 375.031C423.627 377.177 422.345 379.129 420.719 380.775C419.094 382.422 417.158 383.729 415.024 384.622C412.89 385.515 410.599 385.975 408.286 385.977H293.676C289.851 385.976 286.132 384.72 283.089 382.403C280.047 380.085 277.848 376.834 276.831 373.147C275.814 369.46 276.034 365.541 277.458 361.991C278.882 358.441 281.432 355.456 284.715 353.495H216.058C206.414 353.495 198.251 345.882 198.127 336.248C198.087 333.128 198.883 330.055 200.432 327.346C201.981 324.638 204.227 322.394 206.936 320.848C204.097 319.374 201.718 317.15 200.057 314.416C198.397 311.683 197.519 308.546 197.52 305.348V283.948C197.517 281.215 198.156 278.52 199.386 276.079C200.616 273.639 202.403 271.522 204.601 269.899H81.221C71.586 269.899 63.433 262.305 63.29 252.68C63.2557 250.363 63.6825 248.063 64.5456 245.912C65.4087 243.762 66.6909 241.805 68.3175 240.155C69.9441 238.505 71.8826 237.195 74.0203 236.302C76.158 235.408 78.4521 234.948 80.769 234.95H89.489C93.0694 234.95 96.5032 233.527 99.035 230.996C101.567 228.464 102.989 225.03 102.989 221.45V221.44C102.989 217.859 101.567 214.425 99.035 211.894C96.5032 209.362 93.0694 207.94 89.489 207.94H31.444C26.8105 207.94 22.3669 206.099 19.0905 202.823C15.8141 199.546 13.9735 195.103 13.9735 190.469C13.9735 185.836 15.8141 181.392 19.0905 178.116C22.3669 174.839 26.8105 172.999 31.444 172.999H115.369C120.002 173 124.447 171.16 127.724 167.885C131.001 164.609 132.843 160.166 132.844 155.533C132.845 150.899 131.006 146.455 127.73 143.178C124.455 139.901 120.011 138.059 115.378 138.058H91.407C81.753 138.058 73.59 130.426 73.486 120.773C73.4609 118.462 73.8943 116.17 74.7613 114.028C75.6282 111.886 76.9114 109.937 78.5366 108.295C80.1618 106.653 82.0966 105.349 84.2291 104.459C86.3616 103.57 88.6494 103.112 90.96 103.113H250.36C259.748 103.113 267.807 110.337 268.26 119.724C268.414 122.821 267.742 125.903 266.314 128.656H471.893C476.526 128.656 480.97 130.496 484.247 133.773C487.523 137.049 489.364 141.493 489.364 146.126C489.364 150.76 487.523 155.203 484.247 158.48C480.97 161.756 476.526 163.597 471.893 163.597H395.746C395.743 167.356 394.248 170.96 391.59 173.619C388.932 176.278 385.328 177.774 381.569 177.779H295.736C298.28 180.18 300.043 183.29 300.799 186.705C301.555 190.121 301.268 193.684 299.975 196.935C298.682 200.185 296.443 202.972 293.547 204.935C290.652 206.898 287.234 207.946 283.736 207.945H259.736C258.791 207.943 257.855 208.128 256.982 208.488C256.109 208.849 255.315 209.378 254.647 210.045C253.978 210.713 253.447 211.505 253.085 212.378C252.723 213.25 252.536 214.186 252.536 215.131V215.141C252.536 216.085 252.723 217.021 253.085 217.893C253.447 218.766 253.978 219.559 254.647 220.226C255.315 220.893 256.109 221.422 256.982 221.783C257.855 222.143 258.791 222.328 259.736 222.327H454.55C459.183 222.327 463.627 224.167 466.904 227.444C470.18 230.72 472.021 235.164 472.021 239.797C472.021 244.431 470.18 248.874 466.904 252.151C463.627 255.427 459.183 257.268 454.55 257.268H404.169C406.724 258.831 408.835 261.024 410.299 263.637C411.763 266.249 412.532 269.194 412.532 272.19V277.173C412.534 280.378 411.652 283.522 409.984 286.26C408.317 288.998 405.927 291.223 403.078 292.693H515.49C525.134 292.693 533.297 300.306 533.421 309.94" fill="#FBF8FF"/>
</g>
<path d="M426.707 104.447V125.963" stroke="#35008B" stroke-width="2" stroke-miterlimit="10" stroke-linecap="round"/>
<path d="M415.949 115.205H437.465" stroke="#35008B" stroke-width="2" stroke-miterlimit="10" stroke-linecap="round"/>
<path d="M153.086 1.55859V20.5626" stroke="#35008B" stroke-width="2" stroke-miterlimit="10" stroke-linecap="round"/>
<path d="M143.584 11.0606H162.588" stroke="#35008B" stroke-width="2" stroke-miterlimit="10" stroke-linecap="round"/>
<path d="M504.775 18.8236C504.775 21.3244 504.033 23.769 502.644 25.8483C501.255 27.9276 499.28 29.5483 496.969 30.5052C494.659 31.4622 492.117 31.7125 489.664 31.2246C487.211 30.7366 484.958 29.5323 483.19 27.7639C481.422 25.9955 480.218 23.7425 479.73 21.2897C479.242 18.8369 479.493 16.2946 480.45 13.9843C481.407 11.6739 483.028 9.69923 485.107 8.31001C487.187 6.92079 489.631 6.1794 492.132 6.1796C493.792 6.1796 495.437 6.50665 496.971 7.14208C498.505 7.77752 499.898 8.70888 501.072 9.883C502.246 11.0571 503.178 12.451 503.813 13.985C504.448 15.5191 504.775 17.1632 504.775 18.8236Z" stroke="#35008B" stroke-width="2" stroke-miterlimit="10"/>
<path d="M34.849 298.265C34.85 300.766 34.1093 303.211 32.7205 305.291C31.3317 307.371 29.3573 308.992 27.0469 309.95C24.7366 310.908 22.1941 311.159 19.741 310.671C17.288 310.184 15.0346 308.98 13.2658 307.212C11.497 305.443 10.2924 303.19 9.80424 300.738C9.31607 298.285 9.56631 295.742 10.5233 293.431C11.4803 291.121 13.1011 289.146 15.1806 287.756C17.2602 286.367 19.705 285.625 22.206 285.626C25.5584 285.626 28.7734 286.957 31.1443 289.328C33.5151 291.698 34.8477 294.912 34.849 298.265Z" stroke="#35008B" stroke-width="2" stroke-miterlimit="10"/>
<path d="M546.521 271.829C546.521 273.039 546.162 274.222 545.489 275.228C544.817 276.235 543.861 277.019 542.743 277.482C541.624 277.945 540.394 278.066 539.207 277.83C538.02 277.594 536.929 277.011 536.074 276.155C535.218 275.299 534.635 274.209 534.399 273.022C534.162 271.835 534.284 270.604 534.747 269.486C535.21 268.368 535.994 267.412 537 266.739C538.007 266.067 539.19 265.708 540.4 265.708C542.023 265.708 543.58 266.352 544.728 267.5C545.876 268.648 546.521 270.205 546.521 271.829Z" stroke="#35008B" stroke-width="2" stroke-miterlimit="10"/>
<path d="M79.0879 247.214C79.0877 248.424 78.7286 249.607 78.0561 250.613C77.3835 251.62 76.4277 252.404 75.3095 252.867C74.1912 253.33 72.9608 253.451 71.7737 253.215C70.5866 252.979 69.4962 252.396 68.6404 251.54C67.7846 250.684 67.2017 249.594 66.9655 248.407C66.7294 247.22 66.8505 245.989 67.3136 244.871C67.7767 243.753 68.5609 242.797 69.5672 242.124C70.5735 241.452 71.7566 241.093 72.9669 241.093C74.5903 241.093 76.1472 241.737 77.2951 242.885C78.443 244.033 79.0879 245.59 79.0879 247.214Z" stroke="#35008B" stroke-width="2" stroke-miterlimit="10"/>
<path d="M325.28 426.587C460.216 426.587 569.604 421.848 569.604 416.003C569.604 410.157 460.216 405.419 325.28 405.419C190.344 405.419 80.9561 410.157 80.9561 416.003C80.9561 421.848 190.344 426.587 325.28 426.587Z" fill="#EDE2FD"/>
<path d="M226.303 243.715C228.74 243.972 230.924 242.205 231.181 239.768C231.438 237.331 229.671 235.146 227.234 234.889C224.797 234.632 222.613 236.399 222.355 238.836C222.098 241.274 223.865 243.458 226.303 243.715Z" fill="#F8F4FF"/>
<path d="M178.86 337.693C173.564 337.688 168.42 335.93 164.228 332.693C160.037 329.457 157.035 324.924 155.69 319.803L130.018 222.003L123.075 195.493L118.503 178.093C116.886 171.945 117.777 165.407 120.981 159.917C124.184 154.427 129.438 150.434 135.585 148.817L268.424 113.95C268.696 116.641 269.107 119.317 269.656 121.966C271.674 131.555 277.456 140.861 282.561 149.071C283.445 150.492 284.304 151.871 285.115 153.211C288.583 158.919 290.893 163.388 290.893 166.657C290.893 170.157 289.016 174.422 287.027 178.936L286.375 180.424C283.253 187.606 280.752 194.517 284.411 200.163C286.078 202.73 287.811 204.992 289.343 206.988C293.48 212.388 296.743 216.647 296.083 223.223C295.757 225.916 295.222 228.58 294.483 231.191C293.011 236.918 291.62 242.324 295.791 247.891C297.974 250.569 300.499 252.95 303.3 254.974C307.645 258.388 311.076 261.083 310.27 265.655C309.423 269.255 308.223 272.763 306.688 276.129C304.235 282.108 301.456 288.884 301.746 295.118C301.874 297.907 302.2 301.471 302.737 305.991L184.964 336.901C182.973 337.425 180.923 337.691 178.864 337.693" fill="white"/>
<path d="M178.86 337.693C173.564 337.687 168.42 335.93 164.228 332.693C160.037 329.457 157.035 324.924 155.69 319.803L130.018 222.003L123.075 195.493L118.503 178.093C116.886 171.945 117.777 165.407 120.981 159.917C124.184 154.427 129.438 150.434 135.585 148.817L268.424 113.95C268.696 116.641 269.107 119.317 269.656 121.966C271.674 131.555 277.456 140.861 282.561 149.071C283.445 150.492 284.304 151.871 285.115 153.211C288.583 158.919 290.893 163.388 290.893 166.657C290.893 170.157 289.016 174.422 287.027 178.936L286.375 180.424C283.253 187.606 280.752 194.517 284.411 200.163C286.078 202.73 287.811 204.992 289.343 206.988C293.48 212.388 296.743 216.647 296.083 223.223C295.757 225.916 295.222 228.58 294.483 231.191C293.011 236.918 291.62 242.324 295.791 247.891C297.974 250.569 300.499 252.95 303.3 254.974C307.645 258.388 311.076 261.083 310.27 265.655C309.423 269.255 308.223 272.763 306.688 276.129C304.235 282.108 301.456 288.884 301.746 295.118C301.874 297.907 302.2 301.471 302.737 305.991L184.964 336.901C182.973 337.425 180.923 337.691 178.864 337.693" stroke="#35008B" stroke-width="2"/>
<path d="M123.277 196.321L285.448 153.757C288.734 159.204 290.898 163.494 290.898 166.657C290.898 170.157 289.02 174.422 287.032 178.938L286.546 180.045L129.802 221.176L123.277 196.321Z" fill="#EADFFC" stroke="#35008B" stroke-width="2"/>
<path d="M232.502 228.914L163.027 247.149L169.444 271.598L238.919 253.364L232.502 228.914Z" fill="#EADFFC" stroke="#35008B" stroke-width="2"/>
<path d="M213.025 303.236L182.682 311.201L183.926 315.941L214.269 307.976L213.025 303.236Z" fill="#EADFFC" stroke="#35008B"/>
<path d="M212.416 304.279L213.226 307.37L184.534 314.9L183.724 311.811L212.416 304.279ZM213.632 302.196L181.641 310.596L183.318 316.986L215.309 308.586L213.632 302.196Z" stroke="#35008B"/>
<path d="M260.908 290.172L230.573 298.14L231.818 302.879L262.153 294.911L260.908 290.172Z" fill="#EADFFC" stroke="#35008B" stroke-width="0.999802"/>
<path d="M260.308 291.217L261.118 294.308L232.426 301.838L231.616 298.749L260.308 291.217ZM261.524 289.134L229.533 297.534L231.21 303.924L263.201 295.524L261.524 289.134Z" stroke="#35008B"/>
<path d="M471.558 377.297C470.925 377.297 470.287 377.272 469.644 377.222L321.787 365.533C322.736 361.248 323.577 357.889 324.349 355.292C326.021 349.674 330.743 344.342 334.909 339.635C337.551 336.874 339.911 333.857 341.954 330.628C344.719 325.683 341.864 321.218 338.839 316.491C336.939 313.786 335.402 310.843 334.269 307.738C332.411 301.887 335.153 297.769 338.327 292.999C339.935 290.707 341.361 288.294 342.592 285.78C345.671 279.175 343.897 273.791 341.649 266.974C340.834 264.5 339.989 261.942 339.276 259.036C337.882 253.319 342.243 248.004 347.227 242.606L348.315 241.436C351.815 237.686 355.115 234.145 356.382 230.499C357.595 227.026 356.911 221.986 355.411 214.984C355.085 213.445 354.727 211.849 354.358 210.207C352.273 200.913 349.916 190.383 351.13 180.963C351.489 178.252 351.993 175.563 352.638 172.906L484.958 183.368C491.293 183.877 497.167 186.878 501.293 191.712C505.418 196.546 507.459 202.818 506.968 209.155L495.43 355.213C494.931 361.211 492.203 366.805 487.784 370.893C483.365 374.98 477.576 377.264 471.557 377.296" fill="white"/>
<path d="M471.558 377.297C470.925 377.297 470.287 377.272 469.644 377.222L321.787 365.533C322.736 361.248 323.577 357.889 324.349 355.292C326.021 349.674 330.743 344.342 334.909 339.635C337.551 336.874 339.911 333.857 341.954 330.628C344.719 325.683 341.864 321.218 338.839 316.491C336.939 313.786 335.402 310.843 334.269 307.738C332.411 301.887 335.153 297.769 338.327 292.999C339.935 290.707 341.361 288.294 342.592 285.78C345.671 279.175 343.897 273.791 341.649 266.974C340.834 264.5 339.989 261.942 339.276 259.036C337.882 253.319 342.243 248.004 347.227 242.606L348.315 241.436C351.815 237.686 355.115 234.145 356.382 230.499C357.595 227.026 356.911 221.986 355.411 214.984C355.085 213.445 354.727 211.849 354.358 210.207C352.273 200.913 349.916 190.383 351.13 180.963C351.489 178.252 351.993 175.563 352.638 172.906L484.958 183.368C491.293 183.877 497.167 186.878 501.293 191.712C505.418 196.546 507.459 202.818 506.968 209.155L495.43 355.213C494.931 361.211 492.203 366.805 487.784 370.893C483.365 374.98 477.576 377.264 471.557 377.296" stroke="#35008B" stroke-width="2"/>
<path d="M348.427 241.317C351.88 237.612 355.127 234.106 356.383 230.5C357.531 227.213 356.983 222.527 355.648 216.1L505.486 227.939L503.457 253.578L348.427 241.317Z" fill="#EADFFC" stroke="#35008B" stroke-width="2"/>
<path d="M466.455 308.972C463.935 308.971 461.471 308.224 459.376 306.824C457.281 305.424 455.648 303.434 454.684 301.105C453.719 298.777 453.467 296.215 453.959 293.743C454.45 291.272 455.664 289.002 457.446 287.22C459.228 285.438 461.498 284.224 463.97 283.732C466.441 283.241 469.003 283.493 471.332 284.457C473.66 285.422 475.65 287.055 477.05 289.15C478.45 291.245 479.198 293.709 479.198 296.229C479.194 299.607 477.85 302.846 475.461 305.235C473.072 307.624 469.833 308.968 466.455 308.972Z" fill="#EADFFC" stroke="#35008B" stroke-width="2"/>
<path d="M445.145 306.976C442.625 306.975 440.161 306.228 438.066 304.828C435.971 303.428 434.338 301.438 433.374 299.109C432.409 296.781 432.157 294.219 432.649 291.747C433.141 289.276 434.354 287.006 436.136 285.224C437.918 283.442 440.188 282.228 442.66 281.736C445.131 281.245 447.693 281.497 450.022 282.461C452.35 283.426 454.34 285.059 455.74 287.154C457.14 289.249 457.888 291.713 457.888 294.233C457.884 297.611 456.54 300.85 454.151 303.239C451.762 305.628 448.523 306.972 445.145 306.976Z" fill="#EADFFC" stroke="#35008B" stroke-width="2"/>
<path d="M487.756 206.257C487.061 206.257 486.379 206.074 485.778 205.726C485.176 205.379 484.677 204.88 484.329 204.278C483.982 203.677 483.799 202.995 483.799 202.3C483.799 201.605 483.982 200.923 484.329 200.322L521.465 135.999C521.812 135.397 522.312 134.897 522.913 134.55C523.515 134.203 524.197 134.02 524.892 134.02C525.587 134.02 526.269 134.203 526.871 134.55C527.472 134.897 527.972 135.397 528.319 135.999L565.457 200.322C565.804 200.923 565.986 201.606 565.986 202.3C565.986 202.995 565.803 203.677 565.455 204.279C565.108 204.88 564.608 205.379 564.006 205.727C563.405 206.074 562.723 206.257 562.028 206.257H487.756Z" fill="#F8F4FF" stroke="#35008B"/>
<path d="M524.892 134.87C525.438 134.866 525.974 135.008 526.447 135.281C526.919 135.554 527.311 135.947 527.581 136.422L546.148 168.582L564.717 200.744C564.99 201.215 565.135 201.751 565.135 202.296C565.136 202.841 564.992 203.377 564.72 203.849C564.447 204.321 564.055 204.713 563.582 204.985C563.11 205.257 562.574 205.4 562.029 205.399H487.758C487.213 205.4 486.677 205.257 486.204 204.985C485.732 204.713 485.339 204.321 485.066 203.849C484.794 203.377 484.65 202.841 484.651 202.296C484.651 201.751 484.795 201.215 485.069 200.744L503.638 168.582L522.205 136.422C522.475 135.947 522.866 135.554 523.339 135.281C523.812 135.008 524.348 134.866 524.894 134.87M524.894 133.164C524.049 133.159 523.217 133.379 522.485 133.802C521.753 134.224 521.147 134.834 520.728 135.569L502.158 167.734L483.59 199.896C483.168 200.627 482.945 201.457 482.945 202.301C482.945 203.146 483.168 203.975 483.59 204.706C484.013 205.438 484.62 206.045 485.352 206.467C486.084 206.888 486.913 207.11 487.758 207.11H562.028C562.872 207.11 563.702 206.888 564.433 206.466C565.164 206.044 565.772 205.437 566.194 204.705C566.616 203.974 566.838 203.145 566.838 202.301C566.838 201.456 566.616 200.627 566.194 199.896L547.625 167.734L529.058 135.57C528.639 134.835 528.033 134.225 527.301 133.803C526.569 133.38 525.737 133.16 524.892 133.165" stroke="#35008B"/>
<path d="M109.887 114.064L120.943 132.786" stroke="#35008B"/>
<path d="M109.887 114.064L120.943 132.786" stroke="#35008B" stroke-width="2" stroke-miterlimit="10" stroke-linecap="round"/>
<path d="M85.7549 143.809L106.456 150.457" stroke="#35008B"/>
<path d="M85.7549 143.809L106.456 150.457" stroke="#35008B" stroke-width="2" stroke-miterlimit="10" stroke-linecap="round"/>
<path d="M87.4789 182.073L107.368 173.288" stroke="#35008B"/>
<path d="M87.4789 182.073L107.368 173.288" stroke="#35008B" stroke-width="2" stroke-miterlimit="10" stroke-linecap="round"/>
<path d="M524.893 196.864C526.33 196.864 527.495 195.699 527.495 194.262C527.495 192.825 526.33 191.66 524.893 191.66C523.456 191.66 522.291 192.825 522.291 194.262C522.291 195.699 523.456 196.864 524.893 196.864Z" fill="#35008B"/>
<path d="M527.494 153.936C527.494 152.499 526.329 151.334 524.892 151.334C523.456 151.334 522.291 152.499 522.291 153.936V183.854C522.291 185.291 523.456 186.456 524.892 186.456C526.329 186.456 527.494 185.291 527.494 183.854V153.936Z" fill="#35008B"/>
</svg>
