<svg width="60" height="60" viewBox="0 0 60 60" fill="none" xmlns="http://www.w3.org/2000/svg">
<path d="M54.375 8.4375H47.8125C47.8125 7.40625 46.9688 6.5625 45.9375 6.5625H43.0313C42.6 4.425 40.7063 2.8125 38.4375 2.8125H36.5625C34.3031 2.8125 32.4 4.425 31.9688 6.5625H29.0625C28.0313 6.5625 27.1875 7.40625 27.1875 8.4375H20.625C19.0781 8.4375 17.8125 9.70313 17.8125 11.25V21.9656L3.13126 34.9219C2.94376 35.0906 2.83126 35.3156 2.81251 35.5687C2.79376 35.8125 2.87813 36.0656 3.04688 36.2437L5.53126 39.0562C5.79376 39.3562 6.20626 39.4406 6.56251 39.3094V54.375C6.56251 55.9219 7.82813 57.1875 9.37501 57.1875H54.375C55.9219 57.1875 57.1875 55.9219 57.1875 54.375V11.25C57.1875 9.70313 55.9219 8.4375 54.375 8.4375ZM29.0625 8.4375H32.8125C33.3281 8.4375 33.75 8.01563 33.75 7.5C33.75 5.95313 35.0156 4.6875 36.5625 4.6875H38.4375C39.9844 4.6875 41.25 5.95313 41.25 7.5C41.25 8.01563 41.6719 8.4375 42.1875 8.4375H45.9375V14.0625H29.0625V8.4375ZM5.07188 35.7094L19.6875 22.8188L34.3031 35.7094L33.0563 37.1156L20.3063 25.8562C20.1281 25.6969 19.9031 25.6219 19.6875 25.6219C19.4719 25.6219 19.2469 25.6969 19.0688 25.8562L6.31876 37.1156L5.07188 35.7094ZM15.9375 55.3125V45.9375H23.4375V55.3125H15.9375ZM25.3125 55.3125V45C25.3125 44.4844 24.8906 44.0625 24.375 44.0625H15C14.4844 44.0625 14.0625 44.4844 14.0625 45V55.3125H9.37501C8.85938 55.3125 8.43751 54.8906 8.43751 54.375V37.7437L19.6875 27.8156L30.9375 37.7437V54.375C30.9375 54.8906 30.5156 55.3125 30 55.3125H25.3125ZM55.3125 54.375C55.3125 54.8906 54.8906 55.3125 54.375 55.3125H32.6438C32.7469 55.0219 32.8125 54.7031 32.8125 54.375V39.3187C32.9156 39.3562 33.0281 39.375 33.1406 39.375C33.4031 39.375 33.6563 39.2719 33.8438 39.0562L36.3281 36.2437C36.4969 36.0562 36.5813 35.8125 36.5625 35.5687C36.5438 35.3156 36.4313 35.0906 36.2438 34.9219L20.3063 20.8594C20.1281 20.7 19.9031 20.625 19.6875 20.625V11.25C19.6875 10.7344 20.1094 10.3125 20.625 10.3125H27.1875V14.0625C27.1875 15.0938 28.0313 15.9375 29.0625 15.9375H45.9375C46.9688 15.9375 47.8125 15.0938 47.8125 14.0625V10.3125H54.375C54.8906 10.3125 55.3125 10.7344 55.3125 11.25V54.375Z" fill="#636366"/>
<path d="M19.6875 32.8125C17.6156 32.8125 15.9375 34.4906 15.9375 36.5625C15.9375 38.6344 17.6156 40.3125 19.6875 40.3125C21.7594 40.3125 23.4375 38.6344 23.4375 36.5625C23.4375 34.4906 21.7594 32.8125 19.6875 32.8125ZM19.6875 38.4375C18.6562 38.4375 17.8125 37.5938 17.8125 36.5625C17.8125 35.5312 18.6562 34.6875 19.6875 34.6875C20.7188 34.6875 21.5625 35.5312 21.5625 36.5625C21.5625 37.5938 20.7188 38.4375 19.6875 38.4375Z" fill="#636366"/>
<path d="M50.625 49.6875H37.5C36.9844 49.6875 36.5625 50.1094 36.5625 50.625C36.5625 51.1406 36.9844 51.5625 37.5 51.5625H50.625C51.1406 51.5625 51.5625 51.1406 51.5625 50.625C51.5625 50.1094 51.1406 49.6875 50.625 49.6875Z" fill="#636366"/>
<path d="M50.625 40.3125H38.1656C37.65 40.3125 37.2281 40.7344 37.2281 41.25C37.2281 41.7656 37.65 42.1875 38.1656 42.1875H50.625C51.1407 42.1875 51.5625 41.7656 51.5625 41.25C51.5625 40.7344 51.1407 40.3125 50.625 40.3125Z" fill="#636366"/>
<path d="M50.625 35.625H42.3C41.7844 35.625 41.3625 36.0469 41.3625 36.5625C41.3625 37.0781 41.7844 37.5 42.3 37.5H50.625C51.1407 37.5 51.5625 37.0781 51.5625 36.5625C51.5625 36.0469 51.1407 35.625 50.625 35.625Z" fill="#636366"/>
<path d="M50.625 30.9375H39.8812C39.3656 30.9375 38.9437 31.3594 38.9437 31.875C38.9437 32.3906 39.3656 32.8125 39.8812 32.8125H50.625C51.1406 32.8125 51.5625 32.3906 51.5625 31.875C51.5625 31.3594 51.1406 30.9375 50.625 30.9375Z" fill="#636366"/>
<path d="M50.625 26.25H34.5657C34.05 26.25 33.6282 26.6719 33.6282 27.1875C33.6282 27.7031 34.05 28.125 34.5657 28.125H50.625C51.1407 28.125 51.5625 27.7031 51.5625 27.1875C51.5625 26.6719 51.1407 26.25 50.625 26.25Z" fill="#636366"/>
<path d="M50.625 21.5625H29.25C28.7344 21.5625 28.3125 21.9844 28.3125 22.5C28.3125 23.0156 28.7344 23.4375 29.25 23.4375H50.625C51.1406 23.4375 51.5625 23.0156 51.5625 22.5C51.5625 21.9844 51.1406 21.5625 50.625 21.5625Z" fill="#636366"/>
<path d="M50.625 45H37.5C36.9844 45 36.5625 45.4219 36.5625 45.9375C36.5625 46.4531 36.9844 46.875 37.5 46.875H50.625C51.1406 46.875 51.5625 46.4531 51.5625 45.9375C51.5625 45.4219 51.1406 45 50.625 45Z" fill="#636366"/>
</svg>
