<svg width="60" height="60" viewBox="0 0 60 60" fill="none" xmlns="http://www.w3.org/2000/svg">
<path d="M54.6156 38.1812H53.6359V20.7546C53.9297 20.9765 54.1453 21.1671 54.3859 21.3171C54.9469 21.664 55.5312 21.6733 56.1 21.3405C56.6062 21.0452 56.8719 20.5483 56.7187 20.0062C56.6031 19.5905 56.3187 19.153 55.9844 18.8796C48.65 12.8733 41.2984 6.8874 33.9484 0.901466C33.1453 0.246778 32.3687 0.249903 31.5672 0.901466C30.175 2.03272 28.7859 3.17022 27.3953 4.30303C21.4062 9.18272 15.4172 14.0608 9.43124 18.9421C8.67499 19.5593 8.53905 20.378 9.05467 21.039C9.54842 21.6733 10.5437 21.7546 11.2656 21.2187C11.4469 21.0827 11.625 20.9405 11.9109 20.7171C11.9109 25.9108 11.9156 30.9483 11.8937 35.9874C11.8937 36.1702 11.6797 36.4155 11.5 36.5233C10.4172 37.1765 9.23436 37.6921 8.23749 38.453C6.68905 39.6358 4.98905 40.5155 3.26717 41.3812C2.65936 41.6874 2.05311 42.0015 1.44842 42.314C0.362487 42.8749 0.140612 43.5812 0.718737 44.6671C3.07499 49.0905 5.43436 53.5108 7.79686 57.9312C8.37811 59.0187 9.10936 59.2202 10.1453 58.5796C11.8015 57.553 13.4672 56.5405 15.1015 55.4796C15.8609 54.9858 16.5406 54.9921 17.3422 55.3921C18.9953 56.2171 20.6687 57.0108 22.3672 57.7374C26.1031 59.3374 29.9469 59.9671 34.0062 59.1562C43.5078 57.2562 51.4437 52.5421 58.2797 45.8062C58.9375 45.1593 59.3281 44.353 59.4422 43.4311C59.789 40.6421 57.5297 38.1874 54.6156 38.1812ZM14.7344 18.9155C14.7359 18.6499 14.8828 18.2999 15.0828 18.1358C20.9062 13.3655 26.7437 8.6124 32.5797 3.85928C32.6234 3.82178 32.6766 3.79522 32.7734 3.73115C33.8031 4.56553 34.8453 5.40928 35.8844 6.25459C40.6766 10.1593 45.4656 14.0702 50.2687 17.9608C50.6531 18.2733 50.8062 18.5858 50.8047 19.0874C50.7859 25.7265 50.7875 32.3671 50.8031 39.0062C50.8047 39.4593 50.6562 39.6827 50.2703 39.914C47.4453 41.5999 44.639 43.3187 41.825 45.0265C41.7609 45.0671 41.6937 45.1046 41.5609 45.1827C42.0344 43.3218 41.7562 42.5327 40.3531 41.4218C40.1984 41.2983 40.1156 40.9983 40.1141 40.7796C40.1 36.8546 40.1141 32.9296 40.1 29.0046C40.0891 25.653 38.0578 22.8452 34.9703 21.8655C30.639 20.489 25.9609 23.4733 25.5344 28.0124C25.3265 30.2202 25.439 32.4593 25.4094 34.6843C25.4031 35.1702 25.4078 35.6577 25.4078 36.2437C21.95 34.5593 18.4156 34.3218 14.7484 35.3108C14.7359 35.0765 14.7203 34.9046 14.7203 34.7327C14.7187 29.4593 14.714 24.1874 14.7344 18.9155ZM28.2203 29.2343C28.2359 26.9077 29.6766 24.978 31.7297 24.4749C34.4703 23.803 37.1734 25.7608 37.2562 28.6733C37.3672 32.5546 37.2875 36.4405 37.2859 40.3249C37.2859 40.3796 37.2531 40.4343 37.2219 40.5296C34.5891 40.3046 31.9469 40.1437 29.4422 39.1765C29.2062 39.0858 28.9844 38.9593 28.764 38.8358C28.3797 38.6202 28.2015 38.3218 28.2047 37.8421C28.2281 34.9733 28.2031 32.103 28.2203 29.2343ZM9.70467 55.5483C7.71092 51.8124 5.7328 48.1046 3.71405 44.3202C4.75311 43.7843 5.77811 43.2546 6.84686 42.7046C8.83436 46.3515 10.7984 49.9593 12.789 53.614C11.7656 54.2562 10.7656 54.8827 9.70467 55.5483ZM56.1 44.0202C54.1719 45.9655 52.0625 47.6983 49.8187 49.2655C44.9375 52.6749 39.6281 55.0765 33.7797 56.3218C30.1281 57.0999 26.6969 56.5811 23.3484 55.1155C21.7609 54.4218 20.1922 53.6827 18.6422 52.9108C17.7094 52.4483 16.7703 52.1608 15.7219 52.2546C15.5578 52.2686 15.2922 52.153 15.2187 52.0187C13.2578 48.4015 11.3172 44.7749 9.32655 41.0671C13.2125 38.4608 17.2672 36.7827 22.0109 37.9655C23.7 38.3858 25.2062 39.1483 26.3953 40.4983C27.3062 41.5327 28.5969 41.939 29.8781 42.2999C32.2359 42.9655 34.6687 43.1358 37.0937 43.364C37.7203 43.4233 38.3344 43.6171 39.1312 43.7858C38.8109 44.1952 38.6359 44.4905 38.3953 44.7155C37.1297 45.8999 35.5672 46.4874 33.9203 46.8702C31.3172 47.4765 28.7375 47.3546 26.1906 46.5405C25.9515 46.464 25.7015 46.3937 25.4531 46.378C24.7562 46.3312 24.1765 46.7608 24.0109 47.4108C23.8515 48.0343 24.1062 48.753 24.7391 48.9671C25.8187 49.3312 26.9281 49.7108 28.0515 49.828C32.0969 50.2499 36.1219 50.0749 40.0281 48.8437C41.2406 48.4624 42.4172 47.8937 43.5203 47.253C46.8562 45.3155 50.1453 43.2983 53.4562 41.3187C54.2281 40.8577 55.0203 40.8624 55.7812 41.3374C56.8109 41.978 56.9547 43.1593 56.1 44.0202Z" fill="#636366"/>
<path d="M37.2219 40.5295C34.5891 40.3045 31.9469 40.1436 29.4406 39.1764C29.2062 39.0858 28.9844 38.9592 28.7641 38.8358C28.3781 38.6202 28.2 38.3217 28.2047 37.842C28.2281 34.9733 28.2031 32.103 28.2203 29.2327C28.2344 26.9061 29.6766 24.9764 31.7297 24.4733C34.4703 23.8014 37.1734 25.7592 37.2562 28.6717C37.3672 32.553 37.2875 36.4405 37.2859 40.3248C37.2859 40.3795 37.2531 40.4342 37.2219 40.5295Z" fill="white"/>
</svg>
