<svg width="162" height="32" viewBox="0 0 162 32" fill="none" xmlns="http://www.w3.org/2000/svg">
<path d="M20.6155 1.9482C21.0843 1.46431 21.9034 1.79587 21.9036 2.46968V29.832C21.9036 30.2462 21.5678 30.582 21.1536 30.582H14.8401C14.4261 30.5818 14.0901 30.2461 14.0901 29.832V8.99312C14.0901 8.79843 14.1656 8.61055 14.301 8.47066L20.6155 1.9482Z" fill="#254B86" stroke="#254B86" stroke-width="0.5"/>
<path d="M11.9934 16.1754C12.49 15.8228 13.1779 16.1777 13.1779 16.7868V30.154C13.1779 30.5574 12.8585 30.8891 12.4553 30.904L8.22189 31.0602C7.79727 31.0757 7.44455 30.7352 7.44455 30.3102V19.7926C7.44462 19.5499 7.56208 19.3219 7.75998 19.1813L11.9934 16.1754Z" fill="#254B86" stroke="#254B86" stroke-width="0.5"/>
<path d="M32.2333 17.0051C32.2333 16.3985 32.9159 16.0424 33.413 16.3898L37.6464 19.3508C37.847 19.4911 37.9667 19.7202 37.9667 19.965V28.4426C37.9667 28.8757 37.601 29.2193 37.1688 29.1916L32.9354 28.9182C32.5408 28.8927 32.2333 28.5646 32.2333 28.1691V17.0051Z" fill="#254B86" stroke="#254B86" stroke-width="0.5"/>
<path d="M31.1976 7.1528C31.1976 6.83695 31.0484 6.53967 30.7952 6.35094L24.4826 1.64678C23.8227 1.155 22.8844 1.62645 22.8851 2.44946L22.9075 29.2252C22.9079 29.8099 23.4077 30.2694 23.9904 30.2209L30.2801 29.6976C30.7985 29.6545 31.1972 29.2212 31.1972 28.7011L31.1976 7.1528Z" stroke="#254B86" stroke-width="0.5" stroke-miterlimit="10"/>
<path d="M29.4945 8.08508V9.73547L24.4193 6.41027V4.59875L29.4945 8.08508Z" fill="#254B86" stroke="#254B86" stroke-width="0.5"/>
<path d="M29.4945 11.3461V12.9965L24.4193 9.67131V7.85979L29.4945 11.3461Z" fill="#254B86" stroke="#254B86" stroke-width="0.5"/>
<path d="M29.4945 14.6003V16.2507L24.4193 12.9255V11.114L29.4945 14.6003Z" fill="#254B86" stroke="#254B86" stroke-width="0.5"/>
<path d="M29.4945 17.8596V19.51L24.4193 16.1848V14.3733L29.4945 17.8596Z" fill="#254B86" stroke="#254B86" stroke-width="0.5"/>
<path d="M29.4945 21.1189V22.7693L24.4193 19.4441V17.6326L29.4945 21.1189Z" fill="#254B86" stroke="#254B86" stroke-width="0.5"/>
<path d="M29.4945 24.3748V26.0252L24.4193 22.7V20.8885L29.4945 24.3748Z" fill="#254B86" stroke="#254B86" stroke-width="0.5"/>
<path d="M29.4945 27.6342V29.2846L24.4193 25.9594V24.1478L29.4945 27.6342Z" fill="#254B86" stroke="#254B86" stroke-width="0.5"/>
<path d="M27.1458 29.2433L27.2738 29.9601L24.4193 29.1613V27.4006L27.1458 29.2433Z" fill="#254B86" stroke="#254B86" stroke-width="0.5"/>
<path d="M31.0508 29.0347C33.48 28.9642 35.8835 28.9493 38.292 29.1821C39.3487 29.285 40.3187 29.428 41.1777 29.5806L41.1787 29.5816C41.6098 29.6553 42.0135 29.7347 42.3867 29.8159C42.0288 29.7911 41.6443 29.7673 41.2354 29.7446H41.2334C40.364 29.7023 39.3832 29.6809 38.3154 29.6831C35.8731 29.6931 33.4461 29.8637 31.0225 30.0649H31.0215C30.3542 30.1238 29.676 30.1924 28.9902 30.2661C28.3054 30.3402 27.6114 30.4166 26.9131 30.4937H26.9121L22.6777 30.9849C21.2579 31.142 19.8426 31.3003 18.4492 31.4233H18.4482C17.7525 31.4887 17.0613 31.543 16.3779 31.5894C16.0364 31.6122 15.6971 31.6335 15.3604 31.6528L14.3574 31.7056C11.9296 31.7762 9.52765 31.7898 7.12012 31.5571C6.06357 31.4551 5.09376 31.3115 4.23438 31.1597H4.2334C3.80901 31.0872 3.41131 31.0081 3.04297 30.9282C3.39609 30.9528 3.77536 30.9762 4.17773 30.9985H4.17871C4.83095 31.0308 5.54559 31.0509 6.3125 31.0581L7.09668 31.061C9.53854 31.051 11.9659 30.8809 14.3896 30.6792H14.3906C15.0574 30.6202 15.7351 30.5515 16.4209 30.4771C17.1066 30.404 17.8014 30.3266 18.499 30.2495H18.5C19.897 30.0875 21.3158 29.9235 22.7354 29.7573L22.7344 29.7564C24.1541 29.599 25.5694 29.4405 26.9629 29.3179H26.9639C27.6602 29.2527 28.3518 29.1963 29.0342 29.1509C29.7155 29.1051 30.3884 29.0648 31.0498 29.0337L31.0508 29.0347Z" fill="#254B86" stroke="#254B86" stroke-width="0.5"/>
<path d="M56.0782 16.596C56.6136 16.596 57.0756 16.53 57.4642 16.398C57.8529 16.2587 58.1719 16.0717 58.4212 15.837C58.6706 15.595 58.8539 15.3127 58.9712 14.99C59.0886 14.6673 59.1472 14.3153 59.1472 13.934C59.1472 13.1787 58.8942 12.592 58.3882 12.174C57.8896 11.756 57.1269 11.547 56.1002 11.547H54.3842V16.596H56.0782ZM63.8112 25H60.8302C60.2729 25 59.8696 24.7873 59.6202 24.362L56.5842 19.467C56.4596 19.2763 56.3202 19.137 56.1662 19.049C56.0196 18.961 55.7996 18.917 55.5062 18.917H54.3842V25H51.0842V9.039H56.1002C57.2149 9.039 58.1682 9.15633 58.9602 9.391C59.7522 9.61833 60.4012 9.93733 60.9072 10.348C61.4132 10.7587 61.7836 11.25 62.0182 11.822C62.2529 12.3867 62.3702 13.01 62.3702 13.692C62.3702 14.22 62.2932 14.7223 62.1392 15.199C61.9926 15.6683 61.7762 16.0973 61.4902 16.486C61.2042 16.8747 60.8522 17.2193 60.4342 17.52C60.0162 17.8207 59.5396 18.0627 59.0042 18.246C59.2169 18.3633 59.4149 18.5063 59.5982 18.675C59.7816 18.8363 59.9466 19.0307 60.0932 19.258L63.8112 25ZM71.3954 17.993C71.3954 17.6777 71.3514 17.377 71.2634 17.091C71.1827 16.805 71.0507 16.552 70.8674 16.332C70.6841 16.112 70.4531 15.9397 70.1744 15.815C69.8957 15.683 69.5621 15.617 69.1734 15.617C68.4474 15.617 67.8791 15.8223 67.4684 16.233C67.0577 16.6437 66.7901 17.2303 66.6654 17.993H71.3954ZM66.6214 19.797C66.7167 20.8603 67.0174 21.6377 67.5234 22.129C68.0367 22.6203 68.7041 22.866 69.5254 22.866C69.9434 22.866 70.3027 22.8183 70.6034 22.723C70.9114 22.6203 71.1791 22.5103 71.4064 22.393C71.6411 22.2683 71.8501 22.1583 72.0334 22.063C72.2241 21.9603 72.4111 21.909 72.5944 21.909C72.8291 21.909 73.0124 21.997 73.1444 22.173L74.0244 23.273C73.7017 23.647 73.3461 23.9587 72.9574 24.208C72.5687 24.45 72.1654 24.6443 71.7474 24.791C71.3294 24.9303 70.9077 25.0257 70.4824 25.077C70.0571 25.1357 69.6464 25.165 69.2504 25.165C68.4584 25.165 67.7177 25.0367 67.0284 24.78C66.3464 24.516 65.7487 24.131 65.2354 23.625C64.7294 23.1117 64.3297 22.4773 64.0364 21.722C63.7431 20.9667 63.5964 20.0903 63.5964 19.093C63.5964 18.323 63.7211 17.597 63.9704 16.915C64.2271 16.233 64.5937 15.639 65.0704 15.133C65.5471 14.627 66.1264 14.2273 66.8084 13.934C67.4904 13.6333 68.2604 13.483 69.1184 13.483C69.8444 13.483 70.5117 13.6003 71.1204 13.835C71.7364 14.0623 72.2644 14.396 72.7044 14.836C73.1517 15.276 73.4964 15.8187 73.7384 16.464C73.9877 17.102 74.1124 17.8317 74.1124 18.653C74.1124 18.8803 74.1014 19.0673 74.0794 19.214C74.0574 19.3607 74.0207 19.478 73.9694 19.566C73.9181 19.654 73.8484 19.7163 73.7604 19.753C73.6724 19.7823 73.5587 19.797 73.4194 19.797H66.6214ZM81.9253 20.259C81.1846 20.2957 80.5686 20.3617 80.0773 20.457C79.586 20.545 79.1936 20.6623 78.9003 20.809C78.6143 20.9557 78.409 21.1243 78.2843 21.315C78.167 21.4983 78.1083 21.7 78.1083 21.92C78.1083 22.36 78.2293 22.6717 78.4713 22.855C78.7206 23.0383 79.0653 23.13 79.5053 23.13C80.0113 23.13 80.4476 23.042 80.8143 22.866C81.1883 22.6827 81.5586 22.4003 81.9253 22.019V20.259ZM75.7433 15.232C76.4106 14.6307 77.1476 14.1833 77.9543 13.89C78.761 13.5893 79.6336 13.439 80.5723 13.439C81.247 13.439 81.8483 13.549 82.3763 13.769C82.9116 13.989 83.3626 14.297 83.7293 14.693C84.1033 15.0817 84.3893 15.5473 84.5873 16.09C84.7853 16.6327 84.8843 17.2267 84.8843 17.872V25H83.4983C83.2123 25 82.9923 24.9597 82.8383 24.879C82.6916 24.7983 82.5706 24.6297 82.4753 24.373L82.2333 23.647C81.9473 23.8963 81.6686 24.1163 81.3973 24.307C81.1333 24.4977 80.8583 24.659 80.5723 24.791C80.2863 24.9157 79.9783 25.011 79.6483 25.077C79.3256 25.143 78.9626 25.176 78.5593 25.176C78.0606 25.176 77.606 25.11 77.1953 24.978C76.7846 24.846 76.429 24.6517 76.1283 24.395C75.835 24.131 75.6076 23.8047 75.4463 23.416C75.285 23.0273 75.2043 22.58 75.2043 22.074C75.2043 21.656 75.3106 21.238 75.5233 20.82C75.736 20.402 76.099 20.0243 76.6123 19.687C77.133 19.3423 77.8223 19.06 78.6803 18.84C79.5456 18.6127 80.6273 18.4843 81.9253 18.455V17.872C81.9253 17.1607 81.775 16.64 81.4743 16.31C81.1736 15.9727 80.741 15.804 80.1763 15.804C79.7583 15.804 79.41 15.8553 79.1313 15.958C78.8526 16.0533 78.607 16.1597 78.3943 16.277C78.189 16.387 77.9946 16.4933 77.8113 16.596C77.628 16.6913 77.4153 16.739 77.1733 16.739C76.9606 16.739 76.781 16.6877 76.6343 16.585C76.495 16.475 76.3776 16.3467 76.2823 16.2L75.7433 15.232ZM90.3121 8.599V25H87.2761V8.599H90.3121ZM98.4762 16.981C99.5102 16.981 100.266 16.7317 100.742 16.233C101.226 15.7343 101.468 15.0523 101.468 14.187C101.468 13.791 101.406 13.4317 101.281 13.109C101.164 12.779 100.981 12.5003 100.731 12.273C100.489 12.0383 100.181 11.8587 99.8072 11.734C99.4332 11.6093 98.9895 11.547 98.4762 11.547H96.3862V16.981H98.4762ZM98.4762 9.039C99.5689 9.039 100.511 9.16733 101.303 9.424C102.103 9.68067 102.759 10.04 103.272 10.502C103.786 10.9567 104.163 11.4993 104.405 12.13C104.655 12.7607 104.779 13.4463 104.779 14.187C104.779 14.9717 104.651 15.6903 104.394 16.343C104.138 16.9957 103.749 17.5567 103.228 18.026C102.708 18.4953 102.051 18.862 101.259 19.126C100.467 19.3827 99.5395 19.511 98.4762 19.511H96.3862V25H93.0862V9.039H98.4762ZM109.16 15.529C109.519 14.8837 109.933 14.374 110.403 14C110.872 13.626 111.422 13.439 112.053 13.439C112.566 13.439 112.984 13.56 113.307 13.802L113.109 16.046C113.072 16.1927 113.013 16.2953 112.933 16.354C112.859 16.4053 112.757 16.431 112.625 16.431C112.507 16.431 112.339 16.4163 112.119 16.387C111.899 16.3503 111.693 16.332 111.503 16.332C111.224 16.332 110.975 16.3723 110.755 16.453C110.542 16.5337 110.351 16.6473 110.183 16.794C110.014 16.9407 109.86 17.1203 109.721 17.333C109.589 17.5457 109.464 17.7877 109.347 18.059V25H106.311V13.659H108.104C108.412 13.659 108.624 13.714 108.742 13.824C108.859 13.934 108.943 14.1247 108.995 14.396L109.16 15.529ZM119.461 13.483C120.312 13.483 121.085 13.6187 121.782 13.89C122.479 14.1613 123.076 14.55 123.575 15.056C124.074 15.5547 124.459 16.1633 124.73 16.882C125.001 17.6007 125.137 18.411 125.137 19.313C125.137 20.215 125.001 21.029 124.73 21.755C124.459 22.4737 124.074 23.086 123.575 23.592C123.076 24.098 122.479 24.4867 121.782 24.758C121.085 25.0293 120.312 25.165 119.461 25.165C118.603 25.165 117.822 25.0293 117.118 24.758C116.421 24.4867 115.824 24.098 115.325 23.592C114.826 23.086 114.438 22.4737 114.159 21.755C113.888 21.029 113.752 20.215 113.752 19.313C113.752 18.411 113.888 17.6007 114.159 16.882C114.438 16.1633 114.826 15.5547 115.325 15.056C115.824 14.55 116.421 14.1613 117.118 13.89C117.822 13.6187 118.603 13.483 119.461 13.483ZM119.461 22.888C120.326 22.888 120.968 22.591 121.386 21.997C121.804 21.3957 122.013 20.5047 122.013 19.324C122.013 18.1507 121.804 17.267 121.386 16.673C120.968 16.0717 120.326 15.771 119.461 15.771C118.574 15.771 117.921 16.0717 117.503 16.673C117.085 17.267 116.876 18.1507 116.876 19.324C116.876 20.5047 117.085 21.3957 117.503 21.997C117.921 22.591 118.574 22.888 119.461 22.888Z" fill="#254B86"/>
</svg>
